<svg width="250" height="104" viewBox="0 0 250 104" fill="none" xmlns="http://www.w3.org/2000/svg">
<rect x="0.5" y="0.5" width="249" height="103" rx="13.5" fill="#FF558F" stroke="#FF558F"/>
<rect x="20.5" y="19.5" width="65" height="65" rx="32.5" stroke="white" stroke-width="5"/>
<path d="M42 49.5C40.6193 49.5 39.5 50.6193 39.5 52C39.5 53.3807 40.6193 54.5 42 54.5L42 49.5ZM69.7678 53.7678C70.7441 52.7915 70.7441 51.2085 69.7678 50.2322L53.8579 34.3223C52.8816 33.346 51.2986 33.346 50.3223 34.3223C49.346 35.2986 49.346 36.8816 50.3223 37.8579L64.4645 52L50.3223 66.1421C49.346 67.1184 49.346 68.7014 50.3223 69.6777C51.2986 70.654 52.8816 70.654 53.8579 69.6777L69.7678 53.7678ZM42 52L42 54.5L68 54.5L68 52L68 49.5L42 49.5L42 52Z" fill="white"/>
<path d="M126.346 45C126.255 43.8636 125.829 42.9773 125.067 42.3409C124.317 41.7045 123.175 41.3864 121.641 41.3864C120.664 41.3864 119.863 41.5057 119.238 41.7443C118.624 41.9716 118.17 42.2841 117.874 42.6818C117.579 43.0795 117.425 43.5341 117.414 44.0455C117.391 44.4659 117.465 44.8466 117.635 45.1875C117.817 45.517 118.101 45.8182 118.488 46.0909C118.874 46.3523 119.368 46.5909 119.971 46.8068C120.573 47.0227 121.289 47.2159 122.118 47.3864L124.982 48C126.914 48.4091 128.567 48.9489 129.942 49.6193C131.317 50.2898 132.442 51.0795 133.317 51.9886C134.192 52.8864 134.834 53.8977 135.243 55.0227C135.664 56.1477 135.88 57.375 135.891 58.7045C135.88 61 135.306 62.9432 134.17 64.5341C133.033 66.125 131.408 67.3352 129.295 68.1648C127.192 68.9943 124.664 69.4091 121.709 69.4091C118.675 69.4091 116.028 68.9602 113.766 68.0625C111.516 67.1648 109.766 65.7841 108.516 63.9205C107.278 62.0455 106.653 59.6477 106.641 56.7273H115.641C115.698 57.7955 115.965 58.6932 116.442 59.4205C116.92 60.1477 117.59 60.6989 118.454 61.0739C119.329 61.4489 120.368 61.6364 121.573 61.6364C122.584 61.6364 123.431 61.5114 124.113 61.2614C124.795 61.0114 125.312 60.6648 125.664 60.2216C126.016 59.7784 126.198 59.2727 126.209 58.7045C126.198 58.1705 126.022 57.7045 125.681 57.3068C125.351 56.8977 124.806 56.5341 124.045 56.2159C123.283 55.8864 122.255 55.5795 120.959 55.2955L117.482 54.5455C114.391 53.875 111.954 52.7557 110.17 51.1875C108.397 49.608 107.516 47.4545 107.528 44.7273C107.516 42.5114 108.107 40.5739 109.3 38.9148C110.505 37.2443 112.17 35.9432 114.295 35.0114C116.431 34.0795 118.88 33.6136 121.641 33.6136C124.459 33.6136 126.897 34.0852 128.954 35.0284C131.01 35.9716 132.596 37.3011 133.709 39.017C134.834 40.7216 135.403 42.7159 135.414 45H126.346ZM153.326 42.8182V49.6364H136.076V42.8182H153.326ZM139.417 36.5455H148.826V60.5795C148.826 60.9432 148.889 61.25 149.014 61.5C149.139 61.7386 149.332 61.9205 149.593 62.0455C149.855 62.1591 150.19 62.2159 150.599 62.2159C150.883 62.2159 151.213 62.1818 151.588 62.1136C151.974 62.0455 152.258 61.9886 152.44 61.9432L153.804 68.5568C153.383 68.6818 152.781 68.8352 151.997 69.017C151.224 69.1989 150.304 69.3182 149.235 69.375C147.076 69.4886 145.264 69.267 143.798 68.7102C142.332 68.142 141.23 67.25 140.491 66.0341C139.752 64.8182 139.394 63.2955 139.417 61.4659V36.5455ZM162.541 69.4091C160.871 69.4091 159.393 69.1364 158.109 68.5909C156.837 68.0341 155.837 67.1932 155.109 66.0682C154.382 64.9432 154.018 63.5114 154.018 61.7727C154.018 60.3409 154.263 59.1193 154.751 58.108C155.24 57.0852 155.922 56.25 156.797 55.6023C157.672 54.9545 158.689 54.4602 159.848 54.1193C161.018 53.7784 162.28 53.5568 163.632 53.4545C165.098 53.3409 166.274 53.2045 167.161 53.0455C168.058 52.875 168.706 52.642 169.104 52.3466C169.501 52.0398 169.7 51.6364 169.7 51.1364V51.0682C169.7 50.3864 169.439 49.8636 168.916 49.5C168.393 49.1364 167.723 48.9545 166.905 48.9545C166.007 48.9545 165.274 49.1534 164.706 49.5511C164.149 49.9375 163.814 50.5341 163.7 51.3409H155.041C155.155 49.75 155.661 48.2841 156.558 46.9432C157.467 45.5909 158.791 44.5114 160.53 43.7045C162.268 42.8864 164.439 42.4773 167.041 42.4773C168.916 42.4773 170.598 42.6989 172.087 43.142C173.575 43.5739 174.842 44.1818 175.888 44.9659C176.933 45.7386 177.729 46.6477 178.274 47.6932C178.831 48.7273 179.109 49.8523 179.109 51.0682V69H170.314V65.3182H170.109C169.587 66.2955 168.95 67.0852 168.2 67.6875C167.462 68.2898 166.615 68.7273 165.661 69C164.717 69.2727 163.678 69.4091 162.541 69.4091ZM165.609 63.4773C166.325 63.4773 166.996 63.3295 167.621 63.0341C168.257 62.7386 168.774 62.3125 169.172 61.7557C169.57 61.1989 169.768 60.5227 169.768 59.7273V57.5455C169.518 57.6477 169.251 57.7443 168.967 57.8352C168.695 57.9261 168.399 58.0114 168.081 58.0909C167.774 58.1705 167.445 58.2443 167.092 58.3125C166.751 58.3807 166.393 58.4432 166.018 58.5C165.291 58.6136 164.695 58.8011 164.229 59.0625C163.774 59.3125 163.433 59.625 163.206 60C162.99 60.3636 162.882 60.7727 162.882 61.2273C162.882 61.9545 163.138 62.5114 163.649 62.8977C164.161 63.2841 164.814 63.4773 165.609 63.4773ZM181.685 69V42.8182H190.821V47.7955H191.094C191.571 45.9545 192.327 44.608 193.361 43.7557C194.407 42.9034 195.628 42.4773 197.026 42.4773C197.435 42.4773 197.839 42.5114 198.236 42.5795C198.645 42.6364 199.037 42.7216 199.412 42.8352V50.8636C198.946 50.7045 198.373 50.5852 197.691 50.5057C197.009 50.4261 196.424 50.3864 195.935 50.3864C195.015 50.3864 194.185 50.5966 193.446 51.017C192.719 51.4261 192.145 52.0057 191.725 52.7557C191.304 53.4943 191.094 54.3636 191.094 55.3636V69H181.685ZM217.269 42.8182V49.6364H200.019V42.8182H217.269ZM203.36 36.5455H212.769V60.5795C212.769 60.9432 212.832 61.25 212.957 61.5C213.082 61.7386 213.275 61.9205 213.536 62.0455C213.798 62.1591 214.133 62.2159 214.542 62.2159C214.826 62.2159 215.156 62.1818 215.531 62.1136C215.917 62.0455 216.201 61.9886 216.383 61.9432L217.747 68.5568C217.326 68.6818 216.724 68.8352 215.94 69.017C215.167 69.1989 214.247 69.3182 213.178 69.375C211.019 69.4886 209.207 69.267 207.741 68.7102C206.275 68.142 205.173 67.25 204.434 66.0341C203.696 64.8182 203.338 63.2955 203.36 61.4659V36.5455Z" fill="white"/>
</svg>
